<svg version="1.1" xmlns="http://www.w3.org/2000/svg" viewBox="0 0 595.6263631871338 117.59878664177472" width="595.6263631871338" height="117.59878664177472">
  <!-- svg-source:excalidraw -->
  
  <defs>
    <style class="style-fonts">
      @font-face {
        font-family: "Virgil";
        src: url("https://excalidraw.com/Virgil.woff2");
      }
      @font-face {
        font-family: "Cascadia";
        src: url("https://excalidraw.com/Cascadia.woff2");
      }
    </style>
    
  </defs>
  <rect x="0" y="0" width="595.6263631871338" height="117.59878664177472" fill="#ffffff"></rect><g stroke-linecap="round" transform="translate(10 12.598786641774723) rotate(0 75.5 47.5)"><path d="M0 0 C41.71 0, 83.43 0, 151 0 M0 0 C34.19 0, 68.38 0, 151 0 M151 0 C151 26.8, 151 53.61, 151 95 M151 0 C151 20.11, 151 40.22, 151 95 M151 95 C99.62 95, 48.25 95, 0 95 M151 95 C101.22 95, 51.44 95, 0 95 M0 95 C0 75.05, 0 55.09, 0 0 M0 95 C0 63.82, 0 32.64, 0 0" stroke="#1e1e1e" stroke-width="2" fill="none"></path></g><g transform="translate(20.4609375 37.09878664177472) rotate(0 65.0390625 23)"><text x="65.0390625" y="0" font-family="Helvetica, Segoe UI Emoji" font-size="20px" fill="#1e1e1e" text-anchor="middle" style="white-space: pre;" direction="ltr" dominant-baseline="text-before-edge">Previous Page</text><text x="65.0390625" y="23" font-family="Helvetica, Segoe UI Emoji" font-size="20px" fill="#1e1e1e" text-anchor="middle" style="white-space: pre;" direction="ltr" dominant-baseline="text-before-edge">(Any Page)</text></g><g stroke-linecap="round" transform="translate(221.89144601225325 10) rotate(0 75.5 47.5)"><path d="M0 0 C57.68 0, 115.36 0, 151 0 M0 0 C41.05 0, 82.1 0, 151 0 M151 0 C151 30.55, 151 61.1, 151 95 M151 0 C151 33.53, 151 67.05, 151 95 M151 95 C100.23 95, 49.47 95, 0 95 M151 95 C99.89 95, 48.78 95, 0 95 M0 95 C0 59.52, 0 24.04, 0 0 M0 95 C0 62.13, 0 29.26, 0 0" stroke="#1e1e1e" stroke-width="2" fill="none"></path></g><g transform="translate(252.36703194975325 34.5) rotate(0 45.0244140625 23)"><text x="45.0244140625" y="0" font-family="Helvetica, Segoe UI Emoji" font-size="20px" fill="#1e1e1e" text-anchor="middle" style="white-space: pre;" direction="ltr" dominant-baseline="text-before-edge">Checkout </text><text x="45.0244140625" y="23" font-family="Helvetica, Segoe UI Emoji" font-size="20px" fill="#1e1e1e" text-anchor="middle" style="white-space: pre;" direction="ltr" dominant-baseline="text-before-edge">Page</text></g><g stroke-linecap="round" transform="translate(434.62636318713385 10.258084164271963) rotate(0 75.5 47.5)"><path d="M0 0 C46.9 0, 93.8 0, 151 0 M0 0 C39.37 0, 78.75 0, 151 0 M151 0 C151 33.49, 151 66.97, 151 95 M151 0 C151 28.17, 151 56.34, 151 95 M151 95 C115.5 95, 80 95, 0 95 M151 95 C99.97 95, 48.93 95, 0 95 M0 95 C0 63.1, 0 31.2, 0 0 M0 95 C0 58.66, 0 22.33, 0 0" stroke="#1e1e1e" stroke-width="2" fill="none"></path></g><g transform="translate(459.90175381213385 34.75808416427196) rotate(0 50.224609375 23)"><text x="50.224609375" y="0" font-family="Helvetica, Segoe UI Emoji" font-size="20px" fill="#1e1e1e" text-anchor="middle" style="white-space: pre;" direction="ltr" dominant-baseline="text-before-edge">Thank You </text><text x="50.224609375" y="23" font-family="Helvetica, Segoe UI Emoji" font-size="20px" fill="#1e1e1e" text-anchor="middle" style="white-space: pre;" direction="ltr" dominant-baseline="text-before-edge">Page</text></g><g stroke-linecap="round"><g transform="translate(163.07363673299324 62.05821471751335) rotate(0 27.530220789250052 0.017583289256549506)"><path d="M0 0 C18.39 0.01, 36.78 0.02, 55.06 0.04 M0 0 C17.74 0.01, 35.49 0.02, 55.06 0.04" stroke="#1e1e1e" stroke-width="2" fill="none"></path></g><g transform="translate(163.07363673299324 62.05821471751335) rotate(0 27.530220789250052 0.017583289256549506)"><path d="M55.06 0.04 L41.46 6.37 L41.47 -6.31 L55.06 0.04" stroke="none" stroke-width="0" fill="#1e1e1e" fill-rule="evenodd"></path><path d="M55.06 0.04 C50.52 2.15, 45.98 4.26, 41.46 6.37 M55.06 0.04 C50.68 2.08, 46.3 4.12, 41.46 6.37 M41.46 6.37 C41.46 1.5, 41.47 -3.37, 41.47 -6.31 M41.46 6.37 C41.46 1.94, 41.47 -2.48, 41.47 -6.31 M41.47 -6.31 C45.22 -4.56, 48.96 -2.81, 55.06 0.04 M41.47 -6.31 C45.62 -4.37, 49.77 -2.44, 55.06 0.04 M55.06 0.04 C55.06 0.04, 55.06 0.04, 55.06 0.04 M55.06 0.04 C55.06 0.04, 55.06 0.04, 55.06 0.04" stroke="#1e1e1e" stroke-width="2" fill="none"></path></g></g><mask></mask><g stroke-linecap="round"><g transform="translate(374.16711427835344 61.989170310938675) rotate(0 28.73526441969898 -0.20930841706854153)"><path d="M0 0 C16.52 -0.12, 33.04 -0.24, 57.47 -0.42 M0 0 C21.24 -0.15, 42.49 -0.31, 57.47 -0.42" stroke="#1e1e1e" stroke-width="2" fill="none"></path></g><g transform="translate(374.16711427835344 61.989170310938675) rotate(0 28.73526441969898 -0.20930841706854153)"><path d="M57.47 -0.42 L43.92 6.02 L43.83 -6.66 L57.47 -0.42" stroke="none" stroke-width="0" fill="#1e1e1e" fill-rule="evenodd"></path><path d="M57.47 -0.42 C53.58 1.43, 49.68 3.28, 43.92 6.02 M57.47 -0.42 C52.46 1.96, 47.45 4.34, 43.92 6.02 M43.92 6.02 C43.89 2.06, 43.86 -1.89, 43.83 -6.66 M43.92 6.02 C43.9 3.46, 43.89 0.9, 43.83 -6.66 M43.83 -6.66 C48.13 -4.69, 52.42 -2.73, 57.47 -0.42 M43.83 -6.66 C47.97 -4.76, 52.11 -2.87, 57.47 -0.42 M57.47 -0.42 C57.47 -0.42, 57.47 -0.42, 57.47 -0.42 M57.47 -0.42 C57.47 -0.42, 57.47 -0.42, 57.47 -0.42" stroke="#1e1e1e" stroke-width="2" fill="none"></path></g></g><mask></mask></svg>