<svg version="1.1" xmlns="http://www.w3.org/2000/svg" viewBox="0 0 376.79702976168437 115.4671434229947" width="376.79702976168437" height="115.4671434229947">
  <!-- svg-source:excalidraw -->
  
  <defs>
    <style class="style-fonts">
      @font-face {
        font-family: "Virgil";
        src: url("https://excalidraw.com/Virgil.woff2");
      }
      @font-face {
        font-family: "Cascadia";
        src: url("https://excalidraw.com/Cascadia.woff2");
      }
    </style>
    
  </defs>
  <rect x="0" y="0" width="376.79702976168437" height="115.4671434229947" fill="#ffffff"></rect><g stroke-linecap="round" transform="translate(10 10.467143422994582) rotate(0 75.5 47.50000000000006)"><path d="M0 0 C35.47 0, 70.94 0, 151 0 M0 0 C31.23 0, 62.46 0, 151 0 M151 0 C151 33.31, 151 66.62, 151 95 M151 0 C151 31.69, 151 63.38, 151 95 M151 95 C108.92 95, 66.85 95, 0 95 M151 95 C98.49 95, 45.98 95, 0 95 M0 95 C0 60.85, 0 26.71, 0 0 M0 95 C0 68.21, 0 41.42, 0 0" stroke="#1e1e1e" stroke-width="2" fill="none"></path></g><g transform="translate(20.4609375 34.96714342299458) rotate(0 65.0390625 23)"><text x="65.0390625" y="0" font-family="Helvetica, Segoe UI Emoji" font-size="20px" fill="#1e1e1e" text-anchor="middle" style="white-space: pre;" direction="ltr" dominant-baseline="text-before-edge">Previous Page</text><text x="65.0390625" y="23" font-family="Helvetica, Segoe UI Emoji" font-size="20px" fill="#1e1e1e" text-anchor="middle" style="white-space: pre;" direction="ltr" dominant-baseline="text-before-edge">(Any Page)</text></g><g stroke-linecap="round" transform="translate(215.79702976168437 10) rotate(0 75.5 47.5)"><path d="M0 0 C46.09 0, 92.18 0, 151 0 M0 0 C32.36 0, 64.71 0, 151 0 M151 0 C151 20.1, 151 40.21, 151 95 M151 0 C151 35.51, 151 71.02, 151 95 M151 95 C93.45 95, 35.9 95, 0 95 M151 95 C117.44 95, 83.88 95, 0 95 M0 95 C0 72.06, 0 49.11, 0 0 M0 95 C0 62.14, 0 29.29, 0 0" stroke="#1e1e1e" stroke-width="2" fill="none"></path></g><g transform="translate(241.07242038668437 34.5) rotate(0 50.224609375 23)"><text x="50.224609375" y="0" font-family="Helvetica, Segoe UI Emoji" font-size="20px" fill="#1e1e1e" text-anchor="middle" style="white-space: pre;" direction="ltr" dominant-baseline="text-before-edge">Thank You </text><text x="50.224609375" y="23" font-family="Helvetica, Segoe UI Emoji" font-size="20px" fill="#1e1e1e" text-anchor="middle" style="white-space: pre;" direction="ltr" dominant-baseline="text-before-edge">Page</text></g><g stroke-linecap="round"><g transform="translate(215.35065519438422 61.85089129281266) rotate(0 -26.697218093400807 -0.19790827834935953)"><path d="M0 0 C-18.15 -0.13, -36.3 -0.27, -53.39 -0.4 M0 0 C-13.23 -0.1, -26.47 -0.2, -53.39 -0.4" stroke="#1e1e1e" stroke-width="2" fill="none"></path></g><g transform="translate(215.35065519438422 61.85089129281266) rotate(0 -26.697218093400807 -0.19790827834935953)"><path d="M-53.39 -0.4 L-39.75 -6.63 L-39.85 6.04 L-53.39 -0.4" stroke="none" stroke-width="0" fill="#1e1e1e" fill-rule="evenodd"></path><path d="M-53.39 -0.4 C-48.76 -2.52, -44.12 -4.64, -39.75 -6.63 M-53.39 -0.4 C-50.01 -1.94, -46.63 -3.49, -39.75 -6.63 M-39.75 -6.63 C-39.78 -2.94, -39.81 0.76, -39.85 6.04 M-39.75 -6.63 C-39.78 -3.66, -39.8 -0.68, -39.85 6.04 M-39.85 6.04 C-45.12 3.54, -50.4 1.03, -53.39 -0.4 M-39.85 6.04 C-43.08 4.51, -46.32 2.97, -53.39 -0.4 M-53.39 -0.4 C-53.39 -0.4, -53.39 -0.4, -53.39 -0.4 M-53.39 -0.4 C-53.39 -0.4, -53.39 -0.4, -53.39 -0.4" stroke="#1e1e1e" stroke-width="2" fill="none"></path></g></g><mask></mask></svg>